<svg xmlns="http://www.w3.org/2000/svg"  viewBox="0 0 50 49"><g transform="matrix(1 0 0 1 0 0)"  ><g style=""   ><g transform="matrix(1 0 0 1 25 25)"  ><g style=""   ><g transform="matrix(1 0 0 1 -0.07 -0.33)"  ><rect style="stroke: none; stroke-width: 1; stroke-dasharray: none; stroke-linecap: butt; stroke-dashoffset: 0; stroke-linejoin: miter; stroke-miterlimit: 4; fill: rgb(0,64,161); fill-opacity: 0.2; fill-rule: nonzero; opacity: 1;"  x="-24.93375" y="-24.66625" rx="14" ry="14" width="49.8675" height="49.3325" /></g><g transform="matrix(1 0 0 1 -0.07 -0.33)"  ><path style="stroke: none; stroke-width: 1; stroke-dasharray: none; stroke-linecap: butt; stroke-dashoffset: 0; stroke-linejoin: miter; stroke-miterlimit: 4; fill: rgb(0,64,161); fill-rule: nonzero; opacity: 1;"  transform=" translate(-24.93, -24.67)" d="M 28.075 7 C 27.1467 7 26.2565 7.36875 25.6001 8.02513 C 24.9437 8.6815 24.575 9.57174 24.575 10.5 C 24.575 11.4283 24.9437 12.3185 25.6001 12.9749 C 26.2565 13.6313 27.1467 14 28.075 14 C 29.0033 14 29.8935 13.6313 30.5499 12.9749 C 31.2062 12.3185 31.575 11.4283 31.575 10.5 C 31.575 9.57174 31.2062 8.6815 30.5499 8.02513 C 29.8935 7.36875 29.0033 7 28.075 7 Z M 22.0025 15.4525 L 17.47 17.395 C 16.7 17.7275 16.0875 18.305 15.72 19.04 L 12.5 25.4625 L 15.6325 27.02 L 18.8525 20.5975 L 22.475 19.04 L 19.4825 33.985 L 13.025 38.8325 L 15.125 41.6325 L 21.5825 36.785 C 22.265 36.26 22.755 35.525 22.9125 34.6675 L 23.6825 30.8175 L 28.2325 34.23 L 29.86 42.3325 L 33.29 41.65 L 31.68 33.565 C 31.505 32.725 31.0325 31.9725 30.35 31.4475 L 26.605 28.6475 L 28.0575 21.875 L 29.72 24.7975 C 30.1575 25.55 30.84 26.11 31.645 26.3725 L 36.265 27.9125 L 37.3675 24.5875 L 32.7475 23.0475 L 30.035 18.2875 C 29.545 17.43 28.775 16.765 27.865 16.3975 L 25.345 15.4 C 24.8132 15.1846 24.244 15.0768 23.6702 15.0828 C 23.0965 15.0888 22.5297 15.2085 22.0025 15.435 L 22.0025 15.4525 Z" stroke-linecap="round" /></g></g></g></g></g></svg>