<svg xmlns="http://www.w3.org/2000/svg"  viewBox="0 0 34 34"><g transform="matrix(1 0 0 1 0 0)"  ><g style=""   ><g transform="matrix(1 0 0 1 17 17)"  ><g style=""   ><g transform="matrix(1 0 0 1 -10.27 -9.92)"  ><path style="stroke: rgb(0,64,161); stroke-width: 2; stroke-dasharray: none; stroke-linecap: round; stroke-dashoffset: 0; stroke-linejoin: round; stroke-miterlimit: 4; fill: none; fill-rule: nonzero; opacity: 1;"  transform=" translate(-6.73, -7.08)" d="M 3.5415 7.08325 L 5.6665 9.20825 L 9.9165 4.95825" stroke-linecap="round" /></g><g transform="matrix(1 0 0 1 -10.27 0)"  ><path style="stroke: rgb(0,64,161); stroke-width: 2; stroke-dasharray: none; stroke-linecap: round; stroke-dashoffset: 0; stroke-linejoin: round; stroke-miterlimit: 4; fill: none; fill-rule: nonzero; opacity: 1;"  transform=" translate(-6.73, -17)" d="M 3.5415 17 L 5.6665 19.125 L 9.9165 14.875" stroke-linecap="round" /></g><g transform="matrix(1 0 0 1 -10.27 9.92)"  ><path style="stroke: rgb(0,64,161); stroke-width: 2; stroke-dasharray: none; stroke-linecap: round; stroke-dashoffset: 0; stroke-linejoin: round; stroke-miterlimit: 4; fill: none; fill-rule: nonzero; opacity: 1;"  transform=" translate(-6.73, -26.92)" d="M 3.5415 26.9165 L 5.6665 29.0415 L 9.9165 24.7915" stroke-linecap="round" /></g><g transform="matrix(1 0 0 1 5.67 0)"  ><path style="stroke: rgb(0,64,161); stroke-width: 2; stroke-dasharray: none; stroke-linecap: round; stroke-dashoffset: 0; stroke-linejoin: round; stroke-miterlimit: 4; fill: none; fill-rule: nonzero; opacity: 1;"  transform=" translate(-22.67, -17)" d="M 14.875 17 L 30.4583 17" stroke-linecap="round" /></g><g transform="matrix(1 0 0 1 5.67 9.92)"  ><path style="stroke: rgb(0,64,161); stroke-width: 2; stroke-dasharray: none; stroke-linecap: round; stroke-dashoffset: 0; stroke-linejoin: round; stroke-miterlimit: 4; fill: none; fill-rule: nonzero; opacity: 1;"  transform=" translate(-22.67, -26.92)" d="M 14.875 26.9165 L 30.4583 26.9165" stroke-linecap="round" /></g><g transform="matrix(1 0 0 1 5.67 -9.92)"  ><path style="stroke: rgb(0,64,161); stroke-width: 2; stroke-dasharray: none; stroke-linecap: round; stroke-dashoffset: 0; stroke-linejoin: round; stroke-miterlimit: 4; fill: none; fill-rule: nonzero; opacity: 1;"  transform=" translate(-22.67, -7.08)" d="M 14.875 7.08325 L 30.4583 7.08325" stroke-linecap="round" /></g></g></g></g></g></svg>