<svg xmlns="http://www.w3.org/2000/svg"  viewBox="0 0 28 28"><g transform="matrix(1 0 0 1 0 0)"  ><g style=""   ><g transform="matrix(1 0 0 1 14 14)"  ><path style="stroke: none; stroke-width: 1; stroke-dasharray: none; stroke-linecap: butt; stroke-dashoffset: 0; stroke-linejoin: miter; stroke-miterlimit: 4; fill: rgb(66,70,84); fill-opacity: 0.8; fill-rule: nonzero; opacity: 1;"  transform=" translate(-14, -14)" d="M 9.09992 2.3335 L 18.8999 2.3335 C 22.6333 2.3335 25.6666 5.36683 25.6666 9.10016 L 25.6666 18.9002 C 25.6666 20.6948 24.9537 22.4159 23.6847 23.6849 C 22.4157 24.9539 20.6946 25.6668 18.8999 25.6668 L 9.09992 25.6668 C 5.36659 25.6668 2.33325 22.6335 2.33325 18.9002 L 2.33325 9.10016 C 2.33325 7.30553 3.04617 5.5844 4.31516 4.31541 C 5.58416 3.04641 7.30529 2.3335 9.09992 2.3335 Z M 8.86659 4.66683 C 7.75268 4.66683 6.68439 5.10933 5.89674 5.89698 C 5.10908 6.68463 4.66659 7.75292 4.66659 8.86683 L 4.66659 19.1335 C 4.66659 21.4552 6.54492 23.3335 8.86659 23.3335 L 19.1333 23.3335 C 20.2472 23.3335 21.3155 22.891 22.1031 22.1033 C 22.8908 21.3157 23.3333 20.2474 23.3333 19.1335 L 23.3333 8.86683 C 23.3333 6.54516 21.4549 4.66683 19.1333 4.66683 L 8.86659 4.66683 Z M 20.1249 6.41683 C 20.5117 6.41683 20.8826 6.57048 21.1561 6.84397 C 21.4296 7.11746 21.5833 7.48839 21.5833 7.87516 C 21.5833 8.26194 21.4296 8.63287 21.1561 8.90636 C 20.8826 9.17985 20.5117 9.3335 20.1249 9.3335 C 19.7381 9.3335 19.3672 9.17985 19.0937 8.90636 C 18.8202 8.63287 18.6666 8.26194 18.6666 7.87516 C 18.6666 7.48839 18.8202 7.11746 19.0937 6.84397 C 19.3672 6.57048 19.7381 6.41683 20.1249 6.41683 Z M 13.9999 8.16683 C 15.547 8.16683 17.0307 8.78141 18.1247 9.87537 C 19.2187 10.9693 19.8333 12.4531 19.8333 14.0002 C 19.8333 15.5473 19.2187 17.031 18.1247 18.125 C 17.0307 19.2189 15.547 19.8335 13.9999 19.8335 C 12.4528 19.8335 10.9691 19.2189 9.87513 18.125 C 8.78117 17.031 8.16659 15.5473 8.16659 14.0002 C 8.16659 12.4531 8.78117 10.9693 9.87513 9.87537 C 10.9691 8.78141 12.4528 8.16683 13.9999 8.16683 Z M 13.9999 10.5002 C 13.0717 10.5002 12.1814 10.8689 11.525 11.5253 C 10.8687 12.1817 10.4999 13.0719 10.4999 14.0002 C 10.4999 14.9284 10.8687 15.8187 11.525 16.475 C 12.1814 17.1314 13.0717 17.5002 13.9999 17.5002 C 14.9282 17.5002 15.8184 17.1314 16.4748 16.475 C 17.1312 15.8187 17.4999 14.9284 17.4999 14.0002 C 17.4999 13.0719 17.1312 12.1817 16.4748 11.5253 C 15.8184 10.8689 14.9282 10.5002 13.9999 10.5002 Z" stroke-linecap="round" /></g></g></g></svg>