<svg xmlns="http://www.w3.org/2000/svg"  viewBox="0 0 28 28"><g transform="matrix(1 0 0 1 0 0)"  ><g style=""   ><g transform="matrix(1 0 0 1 14 14)"  ><path style="stroke: none; stroke-width: 1; stroke-dasharray: none; stroke-linecap: butt; stroke-dashoffset: 0; stroke-linejoin: miter; stroke-miterlimit: 4; fill: rgb(66,70,84); fill-opacity: 0.8; fill-rule: nonzero; opacity: 1;"  transform=" translate(-14, -13.97)" d="M 25.6668 13.9999 C 25.6668 7.55992 20.4402 2.33325 14.0002 2.33325 C 7.56016 2.33325 2.3335 7.55992 2.3335 13.9999 C 2.3335 19.6466 6.34683 24.3483 11.6668 25.4333 L 11.6668 17.4999 L 9.3335 17.4999 L 9.3335 13.9999 L 11.6668 13.9999 L 11.6668 11.0833 C 11.6668 8.83159 13.4985 6.99992 15.7502 6.99992 L 18.6668 6.99992 L 18.6668 10.4999 L 16.3335 10.4999 C 15.6918 10.4999 15.1668 11.0249 15.1668 11.6666 L 15.1668 13.9999 L 18.6668 13.9999 L 18.6668 17.4999 L 15.1668 17.4999 L 15.1668 25.6083 C 21.0585 25.0249 25.6668 20.0549 25.6668 13.9999 Z" stroke-linecap="round" /></g></g></g></svg>