<svg xmlns="http://www.w3.org/2000/svg"  viewBox="0 0 28 28"><g transform="matrix(1 0 0 1 0 0)"  ><g style=""   ><g transform="matrix(1 0 0 1 14 14)"  ><path style="stroke: none; stroke-width: 1; stroke-dasharray: none; stroke-linecap: butt; stroke-dashoffset: 0; stroke-linejoin: miter; stroke-miterlimit: 4; fill: rgb(0,64,161); fill-rule: nonzero; opacity: 1;"  transform=" translate(-14, -14)" d="M 23.333 4.66675 L 4.66634 4.66675 C 3.38301 4.66675 2.34467 5.71675 2.34467 7.00008 L 2.33301 21.0001 C 2.33301 22.2834 3.38301 23.3334 4.66634 23.3334 L 23.333 23.3334 C 24.6163 23.3334 25.6663 22.2834 25.6663 21.0001 L 25.6663 7.00008 C 25.6663 5.71675 24.6163 4.66675 23.333 4.66675 Z M 23.333 9.33341 L 13.9997 15.1667 L 4.66634 9.33341 L 4.66634 7.00008 L 13.9997 12.8334 L 23.333 7.00008 L 23.333 9.33341 Z" stroke-linecap="round" /></g></g></g></svg>