<svg xmlns="http://www.w3.org/2000/svg"  viewBox="0 0 29 29"><g transform="matrix(0.97 0 0 0.97 0 0)"  ><g style=""   ><g transform="matrix(1 0 0 1 15 15)"  ><g style=""   ><g transform="matrix(1 0 0 1 4.3 -5.52)"  ><path style="stroke: none; stroke-width: 1; stroke-dasharray: none; stroke-linecap: butt; stroke-dashoffset: 0; stroke-linejoin: miter; stroke-miterlimit: 4; fill: rgb(255,255,255); fill-rule: nonzero; opacity: 1;"  transform=" translate(-19.3, -9.48)" d="M 23.5766 12.353 C 23.606 8.81831 20.5956 5.57819 16.8666 5.12964 C 16.7861 5.11942 16.7058 5.10719 16.6258 5.09297 C 16.4383 5.05784 16.2483 5.03741 16.0575 5.03186 C 15.2924 5.03186 15.0883 5.56964 15.0345 5.88864 C 14.9824 6.20153 15.0317 6.46105 15.1824 6.66719 C 15.4354 7.01064 15.8815 7.07175 16.2396 7.12064 C 16.3435 7.13531 16.4425 7.14875 16.5256 7.16708 C 19.877 7.9163 21.0051 9.09331 21.5563 12.4165 C 21.5697 12.4972 21.5758 12.5974 21.5832 12.7037 C 21.6076 13.101 21.6565 13.9272 22.5451 13.9272 C 22.6192 13.9272 22.6982 13.9211 22.7822 13.9089 C 23.6084 13.783 23.5827 13.0276 23.5705 12.6646 C 23.5668 12.562 23.5632 12.4654 23.573 12.4006 L 23.5754 12.3517 L 23.5766 12.353 Z" stroke-linecap="round" /></g><g transform="matrix(1 0 0 1 -0.33 -0.63)"  ><path style="stroke: none; stroke-width: 1; stroke-dasharray: none; stroke-linecap: butt; stroke-dashoffset: 0; stroke-linejoin: miter; stroke-miterlimit: 4; fill: rgb(255,255,255); fill-rule: nonzero; opacity: 1;"  transform=" translate(-14.67, -14.37)" d="M 15.84 3.83287 C 15.9411 3.83939 16.0315 3.84794 16.1114 3.85854 C 21.615 4.70554 24.1463 7.31253 24.8466 12.859 C 24.8588 12.9531 24.8613 13.068 24.8625 13.189 C 24.8698 13.6229 24.8845 14.5249 25.8525 14.5432 L 25.8818 14.5432 C 26.1866 14.5432 26.4261 14.4523 26.6005 14.2706 C 26.9011 13.9565 26.8816 13.4884 26.8633 13.112 C 26.8592 13.0183 26.8567 12.9327 26.8559 12.8553 C 26.9268 7.1842 22.0159 2.03987 16.3497 1.8492 C 16.3253 1.8492 16.3024 1.85042 16.2813 1.85287 L 16.214 1.85654 C 16.1554 1.85572 16.0886 1.85246 16.0136 1.84676 C 15.9256 1.84065 15.8242 1.83331 15.7203 1.83331 C 14.8183 1.83331 14.6471 2.47498 14.6251 2.85754 C 14.575 3.7412 15.4294 3.80354 15.84 3.83287 Z M 24.5814 20.0273 C 24.4633 19.9376 24.3463 19.8463 24.2306 19.7535 C 23.6293 19.2695 22.99 18.8246 22.3728 18.3932 L 21.9878 18.1243 C 21.1958 17.5682 20.4845 17.2981 19.8123 17.2981 C 18.9054 17.2981 18.1158 17.7992 17.4631 18.7855 C 17.1747 19.2231 16.8239 19.4358 16.3925 19.4358 C 16.0926 19.4268 15.7982 19.353 15.5296 19.2194 C 12.9752 18.0608 11.1491 16.2836 10.1054 13.9382 C 9.60059 12.804 9.76437 12.0633 10.6517 11.4595 C 11.1565 11.1173 12.0939 10.4805 12.0291 9.25954 C 11.9534 7.87476 8.89659 3.70576 7.60837 3.23276 C 7.05772 3.03156 6.45395 3.02983 5.90215 3.22787 C 4.42204 3.72531 3.36115 4.60042 2.82948 5.75542 C 2.31615 6.87254 2.34059 8.18398 2.89548 9.54798 C 4.50271 13.4921 6.76137 16.9314 9.61037 19.7694 C 12.3983 22.5475 15.8254 24.8221 19.7951 26.532 C 20.1533 26.686 20.5285 26.7703 20.8035 26.8314 C 20.8964 26.8522 20.977 26.8705 21.0357 26.8864 C 21.0679 26.8954 21.1012 26.8999 21.1347 26.8999 L 21.1665 26.8999 C 23.034 26.8999 25.2768 25.1936 25.9649 23.2491 C 26.5687 21.5453 25.4663 20.7032 24.5814 20.0273 Z M 16.6663 8.3392 C 16.3473 8.34654 15.6811 8.36365 15.4477 9.04076 C 15.3377 9.35853 15.3507 9.63109 15.4868 9.85842 C 15.6848 10.1884 16.0649 10.2911 16.4096 10.3473 C 17.6624 10.5478 18.3065 11.2395 18.4348 12.5265 C 18.4947 13.1254 18.8993 13.5446 19.4163 13.5446 C 19.4555 13.5441 19.4946 13.5416 19.5336 13.5373 C 20.1569 13.464 20.4588 13.0056 20.4319 12.1758 C 20.4417 11.3104 19.9895 10.3278 19.2183 9.54554 C 18.4458 8.76087 17.5145 8.31842 16.6663 8.3392 Z" stroke-linecap="round" /></g></g></g></g></g></svg>